<mxfile host="app.diagrams.net" agent="Mozilla/5.0 (Windows NT 10.0; Win64; x64) AppleWebKit/537.36 (KHTML, like Gecko) Chrome/130.0.0.0 Safari/537.36" version="24.8.3">
  <diagram name="PÃ¡gina-1" id="eLYAYOgahHdpZtV-QF5T">
    <mxGraphModel dx="1877" dy="565" grid="1" gridSize="10" guides="1" tooltips="1" connect="1" arrows="1" fold="1" page="1" pageScale="1" pageWidth="827" pageHeight="1169" math="0" shadow="0">
      <root>
        <mxCell id="0" />
        <mxCell id="1" parent="0" />
        <mxCell id="jCJ6aml7zgvXKce0u_Oy-4" value="possui" style="edgeStyle=orthogonalEdgeStyle;rounded=0;orthogonalLoop=1;jettySize=auto;html=1;endArrow=none;endFill=0;" edge="1" parent="1" source="jCJ6aml7zgvXKce0u_Oy-1" target="jCJ6aml7zgvXKce0u_Oy-2">
          <mxGeometry relative="1" as="geometry" />
        </mxCell>
        <mxCell id="jCJ6aml7zgvXKce0u_Oy-1" value="alunos" style="rounded=0;whiteSpace=wrap;html=1;" vertex="1" parent="1">
          <mxGeometry x="-110" y="260" width="120" height="60" as="geometry" />
        </mxCell>
        <mxCell id="jCJ6aml7zgvXKce0u_Oy-5" value="inclui" style="edgeStyle=orthogonalEdgeStyle;rounded=0;orthogonalLoop=1;jettySize=auto;html=1;endArrow=none;endFill=0;" edge="1" parent="1" source="jCJ6aml7zgvXKce0u_Oy-2" target="jCJ6aml7zgvXKce0u_Oy-3">
          <mxGeometry relative="1" as="geometry" />
        </mxCell>
        <mxCell id="jCJ6aml7zgvXKce0u_Oy-2" value="exercicios" style="rounded=0;whiteSpace=wrap;html=1;" vertex="1" parent="1">
          <mxGeometry x="280" y="260" width="120" height="60" as="geometry" />
        </mxCell>
        <mxCell id="jCJ6aml7zgvXKce0u_Oy-3" value="planos" style="rounded=0;whiteSpace=wrap;html=1;" vertex="1" parent="1">
          <mxGeometry x="690" y="260" width="120" height="60" as="geometry" />
        </mxCell>
        <mxCell id="jCJ6aml7zgvXKce0u_Oy-6" value="1" style="text;html=1;align=center;verticalAlign=middle;whiteSpace=wrap;rounded=0;" vertex="1" parent="1">
          <mxGeometry x="40" y="260" width="60" height="30" as="geometry" />
        </mxCell>
        <mxCell id="jCJ6aml7zgvXKce0u_Oy-7" value="n" style="text;html=1;align=center;verticalAlign=middle;whiteSpace=wrap;rounded=0;" vertex="1" parent="1">
          <mxGeometry x="190" y="260" width="60" height="30" as="geometry" />
        </mxCell>
        <mxCell id="jCJ6aml7zgvXKce0u_Oy-8" value="n" style="text;html=1;align=center;verticalAlign=middle;whiteSpace=wrap;rounded=0;" vertex="1" parent="1">
          <mxGeometry x="440" y="260" width="60" height="30" as="geometry" />
        </mxCell>
        <mxCell id="jCJ6aml7zgvXKce0u_Oy-9" value="1" style="text;html=1;align=center;verticalAlign=middle;whiteSpace=wrap;rounded=0;" vertex="1" parent="1">
          <mxGeometry x="590" y="260" width="60" height="30" as="geometry" />
        </mxCell>
        <mxCell id="jCJ6aml7zgvXKce0u_Oy-10" value="sexo" style="ellipse;whiteSpace=wrap;html=1;" vertex="1" parent="1">
          <mxGeometry x="-160" y="525" width="100" height="60" as="geometry" />
        </mxCell>
        <mxCell id="jCJ6aml7zgvXKce0u_Oy-11" value="peso&lt;span style=&quot;color: rgba(0, 0, 0, 0); font-family: monospace; font-size: 0px; text-align: start; text-wrap-mode: nowrap;&quot;&gt;%3CmxGraphModel%3E%3Croot%3E%3CmxCell%20id%3D%220%22%2F%3E%3CmxCell%20id%3D%221%22%20parent%3D%220%22%2F%3E%3CmxCell%20id%3D%222%22%20style%3D%22rounded%3D0%3BorthogonalLoop%3D1%3BjettySize%3Dauto%3Bhtml%3D1%3BentryX%3D0.5%3BentryY%3D1%3BentryDx%3D0%3BentryDy%3D0%3BendArrow%3Dnone%3BendFill%3D0%3B%22%20edge%3D%221%22%20parent%3D%221%22%3E%3CmxGeometry%20relative%3D%221%22%20as%3D%22geometry%22%3E%3CmxPoint%20x%3D%22-181%22%20y%3D%22335%22%20as%3D%22sourcePoint%22%2F%3E%3CmxPoint%20x%3D%22-50%22%20y%3D%22320%22%20as%3D%22targetPoint%22%2F%3E%3C%2FmxGeometry%3E%3C%2FmxCell%3E%3C%2Froot%3E%3C%2FmxGraphModel%3E&lt;/span&gt;&lt;span style=&quot;color: rgba(0, 0, 0, 0); font-family: monospace; font-size: 0px; text-align: start; text-wrap-mode: nowrap;&quot;&gt;%3CmxGraphModel%3E%3Croot%3E%3CmxCell%20id%3D%220%22%2F%3E%3CmxCell%20id%3D%221%22%20parent%3D%220%22%2F%3E%3CmxCell%20id%3D%222%22%20style%3D%22rounded%3D0%3BorthogonalLoop%3D1%3BjettySize%3Dauto%3Bhtml%3D1%3BentryX%3D0.5%3BentryY%3D1%3BentryDx%3D0%3BentryDy%3D0%3BendArrow%3Dnone%3BendFill%3D0%3B%22%20edge%3D%221%22%20parent%3D%221%22%3E%3CmxGeometry%20relative%3D%221%22%20as%3D%22geometry%22%3E%3CmxPoint%20x%3D%22-181%22%20y%3D%22335%22%20as%3D%22sourcePoint%22%2F%3E%3CmxPoint%20x%3D%22-50%22%20y%3D%22320%22%20as%3D%22targetPoint%22%2F%3E%3C%2FmxGeometry%3E%3C%2FmxCell%3E%3C%2Froot%3E%3C%2FmxGraphModel%3E&lt;/span&gt;" style="ellipse;whiteSpace=wrap;html=1;" vertex="1" parent="1">
          <mxGeometry x="-250" y="480" width="100" height="60" as="geometry" />
        </mxCell>
        <mxCell id="jCJ6aml7zgvXKce0u_Oy-16" style="rounded=0;orthogonalLoop=1;jettySize=auto;html=1;endArrow=none;endFill=0;exitX=0.39;exitY=0.023;exitDx=0;exitDy=0;exitPerimeter=0;entryX=0.5;entryY=1;entryDx=0;entryDy=0;" edge="1" parent="1" source="jCJ6aml7zgvXKce0u_Oy-12" target="jCJ6aml7zgvXKce0u_Oy-1">
          <mxGeometry relative="1" as="geometry">
            <mxPoint y="400" as="sourcePoint" />
            <mxPoint x="-10" y="330" as="targetPoint" />
          </mxGeometry>
        </mxCell>
        <mxCell id="jCJ6aml7zgvXKce0u_Oy-12" value="id_aluno" style="ellipse;whiteSpace=wrap;html=1;" vertex="1" parent="1">
          <mxGeometry x="70" y="410" width="100" height="60" as="geometry" />
        </mxCell>
        <mxCell id="jCJ6aml7zgvXKce0u_Oy-15" style="rounded=0;orthogonalLoop=1;jettySize=auto;html=1;entryX=0.5;entryY=1;entryDx=0;entryDy=0;endArrow=none;endFill=0;" edge="1" parent="1" source="jCJ6aml7zgvXKce0u_Oy-13" target="jCJ6aml7zgvXKce0u_Oy-1">
          <mxGeometry relative="1" as="geometry" />
        </mxCell>
        <mxCell id="jCJ6aml7zgvXKce0u_Oy-13" value="nome_aluno" style="ellipse;whiteSpace=wrap;html=1;" vertex="1" parent="1">
          <mxGeometry x="60" y="480" width="100" height="60" as="geometry" />
        </mxCell>
        <mxCell id="jCJ6aml7zgvXKce0u_Oy-14" value="nascimento" style="ellipse;whiteSpace=wrap;html=1;" vertex="1" parent="1">
          <mxGeometry x="-50" y="520" width="100" height="60" as="geometry" />
        </mxCell>
        <mxCell id="jCJ6aml7zgvXKce0u_Oy-17" style="rounded=0;orthogonalLoop=1;jettySize=auto;html=1;entryX=0.5;entryY=1;entryDx=0;entryDy=0;endArrow=none;endFill=0;exitX=0.5;exitY=0;exitDx=0;exitDy=0;" edge="1" parent="1" source="jCJ6aml7zgvXKce0u_Oy-14" target="jCJ6aml7zgvXKce0u_Oy-1">
          <mxGeometry relative="1" as="geometry">
            <mxPoint x="22" y="385" as="sourcePoint" />
            <mxPoint x="-40" y="330" as="targetPoint" />
          </mxGeometry>
        </mxCell>
        <mxCell id="jCJ6aml7zgvXKce0u_Oy-18" style="rounded=0;orthogonalLoop=1;jettySize=auto;html=1;entryX=0.5;entryY=1;entryDx=0;entryDy=0;endArrow=none;endFill=0;" edge="1" parent="1" source="jCJ6aml7zgvXKce0u_Oy-10" target="jCJ6aml7zgvXKce0u_Oy-1">
          <mxGeometry relative="1" as="geometry">
            <mxPoint x="-160" y="380" as="sourcePoint" />
            <mxPoint x="-40" y="330" as="targetPoint" />
          </mxGeometry>
        </mxCell>
        <mxCell id="jCJ6aml7zgvXKce0u_Oy-19" style="rounded=0;orthogonalLoop=1;jettySize=auto;html=1;entryX=0.5;entryY=1;entryDx=0;entryDy=0;endArrow=none;endFill=0;exitX=0.5;exitY=0;exitDx=0;exitDy=0;" edge="1" parent="1" source="jCJ6aml7zgvXKce0u_Oy-11" target="jCJ6aml7zgvXKce0u_Oy-1">
          <mxGeometry relative="1" as="geometry">
            <mxPoint x="-171" y="345" as="sourcePoint" />
            <mxPoint x="-40" y="330" as="targetPoint" />
          </mxGeometry>
        </mxCell>
        <mxCell id="jCJ6aml7zgvXKce0u_Oy-20" value="telefone" style="ellipse;whiteSpace=wrap;html=1;" vertex="1" parent="1">
          <mxGeometry x="-280" y="400" width="100" height="60" as="geometry" />
        </mxCell>
        <mxCell id="jCJ6aml7zgvXKce0u_Oy-21" style="rounded=0;orthogonalLoop=1;jettySize=auto;html=1;entryX=0.5;entryY=1;entryDx=0;entryDy=0;endArrow=none;endFill=0;exitX=0.5;exitY=0;exitDx=0;exitDy=0;" edge="1" parent="1" source="jCJ6aml7zgvXKce0u_Oy-20" target="jCJ6aml7zgvXKce0u_Oy-1">
          <mxGeometry relative="1" as="geometry">
            <mxPoint x="-200" y="285" as="sourcePoint" />
            <mxPoint x="-100" y="300" as="targetPoint" />
          </mxGeometry>
        </mxCell>
        <mxCell id="jCJ6aml7zgvXKce0u_Oy-22" value="aparelho" style="ellipse;whiteSpace=wrap;html=1;" vertex="1" parent="1">
          <mxGeometry x="414" y="340" width="100" height="60" as="geometry" />
        </mxCell>
        <mxCell id="jCJ6aml7zgvXKce0u_Oy-23" value="grupo_muscular" style="ellipse;whiteSpace=wrap;html=1;" vertex="1" parent="1">
          <mxGeometry x="350" y="400" width="100" height="60" as="geometry" />
        </mxCell>
        <mxCell id="jCJ6aml7zgvXKce0u_Oy-24" value="descricao" style="ellipse;whiteSpace=wrap;html=1;" vertex="1" parent="1">
          <mxGeometry x="230" y="400" width="100" height="60" as="geometry" />
        </mxCell>
        <mxCell id="jCJ6aml7zgvXKce0u_Oy-25" value="id_exercicio" style="ellipse;whiteSpace=wrap;html=1;" vertex="1" parent="1">
          <mxGeometry x="170" y="340" width="100" height="60" as="geometry" />
        </mxCell>
        <mxCell id="jCJ6aml7zgvXKce0u_Oy-26" style="rounded=0;orthogonalLoop=1;jettySize=auto;html=1;entryX=0.5;entryY=1;entryDx=0;entryDy=0;endArrow=none;endFill=0;exitX=0.5;exitY=0;exitDx=0;exitDy=0;" edge="1" parent="1" source="jCJ6aml7zgvXKce0u_Oy-22" target="jCJ6aml7zgvXKce0u_Oy-2">
          <mxGeometry relative="1" as="geometry">
            <mxPoint x="9" y="398" as="sourcePoint" />
            <mxPoint x="-10" y="330" as="targetPoint" />
          </mxGeometry>
        </mxCell>
        <mxCell id="jCJ6aml7zgvXKce0u_Oy-27" style="rounded=0;orthogonalLoop=1;jettySize=auto;html=1;endArrow=none;endFill=0;exitX=0.5;exitY=0;exitDx=0;exitDy=0;entryX=0.5;entryY=1;entryDx=0;entryDy=0;" edge="1" parent="1" source="jCJ6aml7zgvXKce0u_Oy-23" target="jCJ6aml7zgvXKce0u_Oy-2">
          <mxGeometry relative="1" as="geometry">
            <mxPoint x="19" y="408" as="sourcePoint" />
            <mxPoint x="340" y="330" as="targetPoint" />
          </mxGeometry>
        </mxCell>
        <mxCell id="jCJ6aml7zgvXKce0u_Oy-28" style="rounded=0;orthogonalLoop=1;jettySize=auto;html=1;endArrow=none;endFill=0;exitX=0.5;exitY=0;exitDx=0;exitDy=0;" edge="1" parent="1" source="jCJ6aml7zgvXKce0u_Oy-24">
          <mxGeometry relative="1" as="geometry">
            <mxPoint x="29" y="418" as="sourcePoint" />
            <mxPoint x="340" y="320" as="targetPoint" />
          </mxGeometry>
        </mxCell>
        <mxCell id="jCJ6aml7zgvXKce0u_Oy-29" style="rounded=0;orthogonalLoop=1;jettySize=auto;html=1;entryX=0.5;entryY=1;entryDx=0;entryDy=0;endArrow=none;endFill=0;exitX=0.5;exitY=0;exitDx=0;exitDy=0;" edge="1" parent="1" source="jCJ6aml7zgvXKce0u_Oy-25" target="jCJ6aml7zgvXKce0u_Oy-2">
          <mxGeometry relative="1" as="geometry">
            <mxPoint x="39" y="428" as="sourcePoint" />
            <mxPoint x="20" y="360" as="targetPoint" />
          </mxGeometry>
        </mxCell>
        <mxCell id="jCJ6aml7zgvXKce0u_Oy-31" value="id_exercicio" style="ellipse;whiteSpace=wrap;html=1;" vertex="1" parent="1">
          <mxGeometry x="600" y="350" width="100" height="60" as="geometry" />
        </mxCell>
        <mxCell id="jCJ6aml7zgvXKce0u_Oy-32" value="id_aluno" style="ellipse;whiteSpace=wrap;html=1;" vertex="1" parent="1">
          <mxGeometry x="670" y="420" width="100" height="60" as="geometry" />
        </mxCell>
        <mxCell id="jCJ6aml7zgvXKce0u_Oy-33" value="descricao" style="ellipse;whiteSpace=wrap;html=1;" vertex="1" parent="1">
          <mxGeometry x="860" y="350" width="100" height="60" as="geometry" />
        </mxCell>
        <mxCell id="jCJ6aml7zgvXKce0u_Oy-34" value="dia_semana" style="ellipse;whiteSpace=wrap;html=1;" vertex="1" parent="1">
          <mxGeometry x="790" y="420" width="100" height="60" as="geometry" />
        </mxCell>
        <mxCell id="jCJ6aml7zgvXKce0u_Oy-35" style="rounded=0;orthogonalLoop=1;jettySize=auto;html=1;entryX=0.5;entryY=1;entryDx=0;entryDy=0;endArrow=none;endFill=0;exitX=0.5;exitY=0;exitDx=0;exitDy=0;" edge="1" parent="1" source="jCJ6aml7zgvXKce0u_Oy-31" target="jCJ6aml7zgvXKce0u_Oy-3">
          <mxGeometry relative="1" as="geometry">
            <mxPoint x="474" y="350" as="sourcePoint" />
            <mxPoint x="350" y="330" as="targetPoint" />
          </mxGeometry>
        </mxCell>
        <mxCell id="jCJ6aml7zgvXKce0u_Oy-36" style="rounded=0;orthogonalLoop=1;jettySize=auto;html=1;entryX=0.5;entryY=1;entryDx=0;entryDy=0;endArrow=none;endFill=0;exitX=0.5;exitY=0;exitDx=0;exitDy=0;" edge="1" parent="1" source="jCJ6aml7zgvXKce0u_Oy-32" target="jCJ6aml7zgvXKce0u_Oy-3">
          <mxGeometry relative="1" as="geometry">
            <mxPoint x="660" y="360" as="sourcePoint" />
            <mxPoint x="760" y="330" as="targetPoint" />
          </mxGeometry>
        </mxCell>
        <mxCell id="jCJ6aml7zgvXKce0u_Oy-37" style="rounded=0;orthogonalLoop=1;jettySize=auto;html=1;entryX=0.5;entryY=1;entryDx=0;entryDy=0;endArrow=none;endFill=0;exitX=0.5;exitY=0;exitDx=0;exitDy=0;" edge="1" parent="1" source="jCJ6aml7zgvXKce0u_Oy-34" target="jCJ6aml7zgvXKce0u_Oy-3">
          <mxGeometry relative="1" as="geometry">
            <mxPoint x="730" y="430" as="sourcePoint" />
            <mxPoint x="760" y="330" as="targetPoint" />
          </mxGeometry>
        </mxCell>
        <mxCell id="jCJ6aml7zgvXKce0u_Oy-38" style="rounded=0;orthogonalLoop=1;jettySize=auto;html=1;entryX=0.5;entryY=1;entryDx=0;entryDy=0;endArrow=none;endFill=0;exitX=0.5;exitY=0;exitDx=0;exitDy=0;" edge="1" parent="1" source="jCJ6aml7zgvXKce0u_Oy-33" target="jCJ6aml7zgvXKce0u_Oy-3">
          <mxGeometry relative="1" as="geometry">
            <mxPoint x="850" y="430" as="sourcePoint" />
            <mxPoint x="760" y="330" as="targetPoint" />
          </mxGeometry>
        </mxCell>
      </root>
    </mxGraphModel>
  </diagram>
</mxfile>
